<svg xmlns="http://www.w3.org/2000/svg" xmlns:xlink="http://www.w3.org/1999/xlink" version="1.1" id="Layer_1" x="0px" y="0px" width="100px" height="100px" viewBox="5.0 -10.0 100.0 135.0" enable-background="new 0 0 100 100" xml:space="preserve">
<g>
	<path fill-rule="evenodd" clip-rule="evenodd" d="M77.242,76.882c2.491-2.041,3.078-5.986,2.98-10.616   c0.156-1.832-0.404-2.948-0.373-4.656c-3.697-1.329-7.696-2.361-11.36-3.725c-4.776,4.598-9.704,9.045-16.575,11.547   c0,4.159,0,8.318,0,12.478c1.44,0.485,2.526,1.324,4.097,1.678c2.652,1.016,7.643,2.374,10.615,0.744   C70.991,82.674,74.688,80.35,77.242,76.882z"/>
	<path fill-rule="evenodd" clip-rule="evenodd" d="M36.456,7.041c1.598-0.07,2.95,1.72,4.656,1.862   C43.171,9.076,47.641,7.5,50.797,7.6c2.343,0.074,6.234,1.483,8.009,1.303c1.674-0.168,3.382-1.961,4.655-2.048   C55.758,4.397,43.873,4.116,36.456,7.041z"/>
	<path fill-rule="evenodd" clip-rule="evenodd" d="M31.8,8.531c-2.542,1.278-5.612,2.892-8.753,5.215   c-2.626,1.942-6.292,4.81-6.891,6.518c-0.666,1.899,0.168,4.341,0.372,5.773c3.785-2.051,7.491-4.18,12.851-4.656   c1.827-4.504,4.917-7.747,8.38-10.615C36.949,10.439,33.394,7.729,31.8,8.531z"/>
	<path fill-rule="evenodd" clip-rule="evenodd" d="M64.95,13c2.078,2.64,4.356,5.081,5.773,8.381   c4.456,0.326,7.53,2.032,10.804,3.539c0.551,0.44,1.193,0.792,1.86,1.117c0.729-2.497,1.129-6.802-1.302-7.636   c-2.633-2.645-5.487-5.067-8.94-6.892c-1.512-1.281-3.643-1.945-5.399-2.979c-2.197,0.474-4.376,0.964-5.59,2.421   C63.317,11.407,63.933,12.407,64.95,13z"/>
	<path fill-rule="evenodd" clip-rule="evenodd" d="M36.269,17.284c-0.982,0.817-1.56,2.04-2.234,3.166   c-0.349,0.831-0.873,1.487-1.117,2.421c0.204,0.54,0.595,0.895,0.931,1.304c2.089,2.815,3.919,5.888,6.332,8.38   c5.728-1.517,13.988-1.421,19.741,0c2.398-3.252,4.923-6.376,7.077-9.871c-1.255-2.346-2.463-4.739-4.282-6.519   c-1.003-0.934-2.509-2.983-4.097-3.725C51.355,9.053,38.353,11.673,36.269,17.284z"/>
	<path fill-rule="evenodd" clip-rule="evenodd" d="M6.098,47.828c0.828-0.601,1.327-1.528,2.235-2.049   c0.277-5.787,1.324-10.059,3.539-13.968c0.707-1.248,1.935-2.481,2.049-3.539c0.142-1.321-0.692-3.102-0.559-4.656   c-3.655,5.223-6.418,11.337-7.635,18.997c-0.395,1.531-0.609,3.241-0.559,5.215c-0.309,0.201-0.309,1.662,0,1.862   c0.003-0.556,0.484-0.633,0.559-1.117C5.729,48.203,6.234,48.336,6.098,47.828z"/>
	<path fill-rule="evenodd" clip-rule="evenodd" d="M88.79,33.487c1.462,3.567,2.575,7.481,2.792,12.292   c1.566,0.793,2.285,2.436,3.354,3.725c-0.287-11.01-3.923-19.667-8.567-25.701c0.464,1.521-0.063,3.658-0.559,4.842   c0.651,0.528,0.964,1.394,1.49,2.048C87.818,31.602,88.168,32.683,88.79,33.487z"/>
	<path fill-rule="evenodd" clip-rule="evenodd" d="M26.958,25.665c-0.974,0.082-1.633,0.478-2.606,0.559c0,0.062,0,0.124,0,0.187   c-1.555,0.37-2.932,0.918-4.098,1.676c-0.354,0.08-0.468,0.401-0.931,0.373c0,0.062,0,0.124,0,0.187   c-3.874,1.825-6.982,9.122-7.45,14.712c-0.346,4.137,1.068,6.958,2.794,9.499c1.357,1.999,3.132,3.77,4.656,4.842   c1.98-0.564,3.792-1.297,5.773-1.861c1.745-0.677,3.656-1.187,5.401-1.863c0.583-5.253,1.871-9.801,3.539-13.968   c0.599-1.326,1.367-2.482,1.863-3.911c0.513-0.231,0.539-0.951,0.931-1.304c-2.24-2.85-4.35-5.831-6.519-8.753   c0-0.062,0-0.124,0-0.186C29.663,24.856,28.089,25.553,26.958,25.665z"/>
	<path fill-rule="evenodd" clip-rule="evenodd" d="M68.302,46.71c0.385,2.412,1.063,4.526,1.119,7.263   c3.841,1.249,7.474,2.708,11.547,3.725c2.353-2.717,6.743-6.649,7.264-11.36c0.36-3.268-0.839-6.672-1.863-9.498   c-0.084-0.848-0.479-1.384-0.744-2.049c-0.062,0-0.124,0-0.186,0c-1.159-2.441-2.203-5-4.658-6.145   c-2.628-1.966-6.309-2.878-10.428-3.353c-2.496,3.093-4.881,6.293-7.077,9.685C65.325,38.513,67.052,42.374,68.302,46.71z"/>
	<path fill-rule="evenodd" clip-rule="evenodd" d="M39.623,37.958c-0.475,1.078-1.12,1.984-1.49,3.166   c-2.007,3.767-3.353,8.195-3.725,13.597c1.792,2.366,4.053,4.265,6.332,6.146c1.137,0.83,2.664,2.062,4.284,2.98   c1.258,0.712,3.705,2.274,5.027,2.233c1.075-0.03,3.14-1.475,4.47-2.233c1.667-0.949,2.819-1.664,4.1-2.608   c1.662-1.228,6.469-4.46,6.89-6.705c0.52-2.776-1.471-5.607-1.49-8.194c-1.113-3.542-2.612-6.699-4.283-9.685   c-3.167-0.974-8.21-1.399-12.664-1.117C44.296,35.712,40.351,35.786,39.623,37.958z"/>
	<path fill-rule="evenodd" clip-rule="evenodd" d="M16.156,62.168c0.937-1.693-0.867-2.602-1.863-3.724   c-2.366-2.669-3.98-5.632-5.028-8.94c-0.99,0.189-1.479,0.881-2.049,1.489c-4.35,3.178,0.5,13.375,1.863,17.134   c0.472,1.143,0.895,2.335,1.676,3.165c-0.009,0.258,0.087,0.41,0.187,0.561c0.34,0.963,1.233,1.373,2.234,1.676   c1.104,0.448,2.372,0.731,3.911,0.745c-0.318-2.608-1.263-6.181-1.118-9.871c0.425-0.258,0.07-1.297,0.187-1.862   C16.156,62.417,16.156,62.293,16.156,62.168z"/>
	<path fill-rule="evenodd" clip-rule="evenodd" d="M86.183,57.885c-0.616,0.315-0.86,1.003-1.305,1.49   c-0.549,0.505-1.248,0.861-1.49,1.676c1.143,4.158,0.321,9.604-0.744,13.224c2.538,0.056,4.159-0.809,5.961-1.489   c1-2.258,2.742-5.062,3.909-8.382c0.783-2.221,2.569-7.8,2.236-10.242c-0.275-2.01-2.405-3.443-3.911-4.657   C89.674,52.686,88.035,55.393,86.183,57.885z"/>
	<path fill-rule="evenodd" clip-rule="evenodd" d="M26.026,59.747c-2.037,0.446-3.725,1.243-5.773,1.677   c-0.218,1.458-0.624,2.729-0.559,4.47c-0.342,4.644,0.637,9.36,3.353,11.547c0.729,0.886,1.536,1.692,2.421,2.422   c2.478,1.659,5.816,4.661,9.684,5.214c3.83,0.547,7.115-0.994,10.243-2.048c1.059-0.309,1.839-0.893,2.794-1.304   c0-4.098,0-8.195,0-12.293c-3.655-1.249-6.84-2.969-9.499-5.215c-2.624-1.907-4.835-4.228-7.264-6.332   c-1.759,0.6-3.416,1.303-5.401,1.676C26.026,59.623,26.026,59.686,26.026,59.747z"/>
	<path fill-rule="evenodd" clip-rule="evenodd" d="M20.439,79.676c-0.612-2.555-4.806-2.52-6.705-3.166   c0.209,0.038,0.29,0.205,0.373,0.372c1.029,1.33,2.027,2.69,3.352,3.725c0.389,0.853,1.01,1.474,1.863,1.861   c0.543,0.7,1.164,1.321,1.862,1.863c0.062,0,0.124,0,0.186,0c0.675,0.94,1.67,1.559,2.607,2.236   c1.354,0.818,2.483,1.862,4.098,2.421c0.71,0.717,1.774,1.081,2.793,1.489c1.497,0.738,3.036,1.435,4.842,1.862   c-0.323-1.105-2.091-2.378-2.235-4.283c-1.177-0.251-1.989-0.867-3.166-1.118c-0.805-0.622-1.885-0.97-2.793-1.49   c-1.104-0.509-1.866-1.362-2.979-1.861C23.289,82.164,21.785,81,20.439,79.676z"/>
	<path fill-rule="evenodd" clip-rule="evenodd" d="M79.291,83.772c2.393-2.202,5.411-4.771,6.704-7.449   c-1.221,0.641-2.58,1.144-4.468,1.117c-2.245,2.288-4.438,4.627-6.892,6.705c-2.464,1.51-5.017,2.932-8.01,3.911   c-0.058,0.251-0.263,0.355-0.186,0.745c-0.56,0.743-0.895,1.712-1.49,2.421c-0.211,0.408-0.622,0.618-0.743,1.117   c1.708-0.34,3.055-1.041,4.468-1.676c1.143-0.472,2.335-0.896,3.166-1.676c1.759-0.664,3.015-1.83,4.47-2.794   c0.953-0.786,2.071-1.406,2.795-2.422C79.168,83.772,79.229,83.772,79.291,83.772z"/>
	<path fill-rule="evenodd" clip-rule="evenodd" d="M50.051,85.076c-3.614,1.848-7.761,3.165-13.036,3.353   c0.397,2.334,1.857,3.605,2.98,5.215c2.688,0.478,5.304,1.028,8.567,0.931c0.503,0.311,2.289,0.311,2.793,0   c3.264,0.098,5.877-0.453,8.566-0.931c1.237-1.557,2.538-3.049,3.166-5.215c-4.085-0.137-7.492-0.949-10.616-2.049   C51.793,85.817,50.836,85.534,50.051,85.076z"/>
</g>
<text x="0.0" y="117.5" font-size="5.0" font-weight="bold" font-family="Helvetica Neue, Helvetica, Arial-Unicode, Arial, Sans-serif" fill="#000000">Created by Melvin Salas</text><text x="0.0" y="122.5" font-size="5.0" font-weight="bold" font-family="Helvetica Neue, Helvetica, Arial-Unicode, Arial, Sans-serif" fill="#000000">from the Noun Project</text></svg>